<svg xmlns="http://www.w3.org/2000/svg" viewBox="0 0 2633.41 1519"><defs><style>.cls-1{font-size:372px;fill:#1d1d1b;font-family:AmericanTypewriter, American Typewriter;}.cls-2{letter-spacing:0.02em;}.cls-3{fill:#ffed00;}</style></defs><g id="Calque_2" data-name="Calque 2"><g id="Calque_1-2" data-name="Calque 1"><text class="cls-1" transform="translate(912.93 490.42)">Harvard<tspan x="0" y="446.4">A</tspan><tspan class="cls-2" x="277.51" y="446.4">r</tspan><tspan x="467.23" y="446.4">t</tspan><tspan x="0" y="892.8">Museums</tspan></text><path class="cls-3" d="M217.44,835.28A59.13,59.13,0,0,1,224.9,851c1.58,4.73,2.75,9.53,1.13,15.17s1.24,11.68,5.1,16.54c.83,1,2.09,1.91,2,3.33-.69,7,2.76,13.41,3,20.4.11,3.08-.78,6.42.39,9.55a1.86,1.86,0,0,1-1.39,2.34c-6.08,1.87-11.17,6.45-18,6.34-3.15-.06-5.45-2.23-8.36-3-3.59-.9-6.5-3.86-10.51-3.69-.84,0-1.12-.51-1.25-1.2-1.6-8.41-9.28-12.31-13.7-18.61-3.43-4.9-7.44-9.35-10.64-14.5-2.21-3.56-4.5-7.24-7-10.71-4.36-6-9.33-11.71-11.5-19.16-.6-2.06-3.36-3-4.69-5-5.8-8.86-11.67-17.68-17.77-26.34-6.53-9.27-14.31-17.82-19.71-27.69a193.28,193.28,0,0,0-13.25-20.38C93.43,767.12,88.39,759.5,83,752.22c-5.56-7.49-11.36-15-14.4-24.13-1-3-4.71-3.91-6.27-6.82-3.74-7-7.79-13.79-11.72-20.67-2.44-4.27-5.76-8.27-7.16-12.85-2.5-8.11-10.16-13.59-10.83-22.46a4,4,0,0,0-1.37-2.44c-2.81-3-6.13-5.71-6.27-10.36a3.45,3.45,0,0,0-2.49-2.86c-4.69-1.33-5-5.56-6.68-9-2.18-4.48-4-9.17-7.44-13-.43-.48-1-1.38-1.33-1.32-5.08.74-5.73-1-3.81-5.48.58-1.35-.2-3.9-1.39-6-2.12-3.64-2.63-8-.28-11.78,3.15-5,11.88-6,17.48-2.28,2.79,1.88,5.88,3.31,6.28,7.59.25,2.72,3,4.25,5.66,4.95,6.67,1.77,12.34,5,16.35,10.73,1.36,2,3.55,2.14,7.4,2.16C50,628.8,48.11,631,50.33,635c.37.66-2,2.44-1.65,4.95.8,5.53,4.76,9.2,7.06,13.78,3.34,6.64,8.2,12.44,12.74,18.39,3.7,4.84,7.27,9.66,11.68,14,4.09,4,6.83,9.43,10.17,14.23a26.73,26.73,0,0,0,2.26,3.27c10.33,11.09,18.51,23.88,28.13,35.46,4.76,5.73,8.9,12.25,14.9,17.21,3,2.53,5.28,6.58,8,9.89,8,9.86,15.88,19.78,23.86,29.64a14.92,14.92,0,0,0,3.18,3.12,4.43,4.43,0,0,0,4.71-.3c1.32-.8.8-2.68.21-3.64-2.25-3.66,0-9.21-5-11.67,1.66-4.34-1.95-7.7-2.17-11.7,0-.65.26-1.58-.07-1.93-5-5.22-3.87-12.83-7.35-18.58-1.28-2.11-.07-4.21-.61-6.29a137.41,137.41,0,0,1-3.66-17.87c-1.14-9.14-4-18.51.45-27.24,1.93-3.84,5.06-7.43,4.54-11.66-.55-4.4.27-8.54.36-12.8.06-3,1-4.71,4.45-4.35,2.3.25,4.66-.12,7,0,5,.22,8.87,2,10.09,7.41,1,4.22,2.9,6.76,7.94,5.34,3.38-1,4.39,3.08,7.13,4.23,7.87,3.32,12.71,11.41,21.47,14,2.52.75,5.22,3.82,7.52,5.85,5.76,5.11,12.74,7.64,19.17,11.3,1.22.69,2.9,1.6,4,0s.86-2.85-.46-4.76c-2.11-3-3.17-6.85-4.54-10.39-2.57-6.62-6.23-13.1-7.2-20-.82-5.73-3.71-9.5-6.69-13.66-1.66-2.32-2.22-5.42-2.5-7.68-1.19-9.87-7.46-17.91-9.05-27.53-.32-2-1.11-3.84-3.18-4.8a2,2,0,0,1-1.09-1.4c.54-13.5-6.82-24.73-10.84-36.88-1.25-3.77-.86-7.66-2.59-11.36-7-14.92-8.24-31.48-13-47.1-4.23-14-5.11-28.89-7.78-43.33-1.58-8.55-1.2-17.18-2.23-25.73-.44-3.59-2.27-6.87-1.67-10.7,1.25-7.9,4.9-10.11,13-8.51,3.93.78,8.38-.39,10.43,4.44,1,2.29,2.51,4.69,2.42,7-.15,4.27,1.3,8.32,1.69,12.45.59,6.36.58,13.09,2.87,19.27,1.39,3.73,2.88,3.81,5.29.46a21.13,21.13,0,0,1,10.16-7.36c5-1.86,12.92,2.84,14.34,8.13A2.12,2.12,0,0,1,238,491c-5.06,9.48-3.18,19.1-1.5,29.08,1.31,7.72,2.7,15.47,4,23.21,1.71,10.28,3.38,20.6,7,30.53,1.23,3.36,2.57,7.09,2.26,11s3.27,6.16,3.93,9.71c1.46,7.94,4.4,15.43,7.24,22.94,1.73,4.57,2.75,9.38,5.22,13.7a20.59,20.59,0,0,1,2.27,7.6c.76,6.74,3.81,12.45,7.08,17.92,3.64,6.07,4.51,13,7.07,19.35,3.63,9,7.26,18,11.23,26.93,3.07,6.89,5.89,14,9.51,20.53,3.86,7,6.22,14.62,10.44,21.57,3.4,5.58,6.68,11.57,9.66,17.56,1.63,3.28,3.27,6.82,3.7,10.38.65,5.46-4.6,10.27-11.11,11.13-.33,0-.71-.08-1,0-8.9,3.67-15.34-1.56-21.29-6.6-4.16-3.52-8.78-3.2-13-2.73-7.72.88-14-.45-19.38-6.36-1.7-1.85-5.4-1.72-7.57-3.32-5-3.69-10.56-6.46-15.22-11.07-3.9-3.87-9-7.14-13.14-11.12-3.45-3.26-6.93-6.5-10.16-10-6.5-7-14.36-12.21-22.21-17.42-1.86-1.23-4.88,2.95-4.22,6.19,2,9.71,4,19.43,6.28,29.09,2.59,11,5,22.08,7.88,32.93,1.82,6.77,4.23,13.67,5.66,20.49,1.83,8.73,7.53,16.2,7.48,25.38,0,1.91,2.64,2.61,2.4,4.72Zm-12.36,47.56c-2.64-7.35-3.37-15.63-9.89-21.71-5.23-4.87-9.9-10.34-14.69-15.66a57.2,57.2,0,0,1-7-8.88c-2.41-4.1-5.51-7.62-8.25-11.43-1.5-2.08-3.85-3.64-5.83-1.72-1.75,1.69.23,4.09,1.6,5.51,8.68,9,13,20.9,20.35,30.85,6.13,8.27,11.7,17,18.19,25,1.09,1.35,2.16,3,3.84,2.67C205.64,887,203.82,884.57,205.08,882.84Zm-54.69-75.43c-1.36-.08-2.73.43-1.89,1.88,1.63,2.82,3.32,5.78,6.29,7.47,1,.57,2.45.57,2.67-1.11C157.76,813.43,152.63,807.56,150.39,807.41Z"/><path class="cls-3" d="M589.42,104.37c-.49,1.46-.53,2.5-.92,2.65-4.89,1.91-5.44,7.18-8.34,10.59-2.46,2.89-5.41,3.42-9.28,3.38-4.91,0-9.24.11-12.44-4.42-2.07-2.92-2.35-5.33-.1-8.39,3.62-4.93,6.67-10.27,10.21-15.27,5.17-7.27,8.19-16,15.54-21.83,2.68-2.12,3.35-5.87,5.76-8.52,3.6-4,8.73-5.35,12.67-8.83A89.15,89.15,0,0,1,622.32,41c7.86-3.83,16.43-6.8,24.59-10.12,8.75-3.57,18.43-4.69,26.43-11.44A65.75,65.75,0,0,1,702.56,5.14c5.59-1.13,11.17-2.5,16.68-3.86,8.58-2.13,17.16-1.36,25,.55A74.3,74.3,0,0,1,772,14.57c11.24,8.52,17.67,20.26,23.66,32.44,2.06,4.2,4.8,8.41,5.48,12.88,1.4,9.17,5.93,17.41,6.78,26.79.51,5.62,2.29,11.27,3.09,17,1.79,12.73,3.44,25.46,2.48,38.41a57.2,57.2,0,0,0,.83,15.1c.15.8.59,1.86.25,2.37-2.94,4.48.34,8.92-.08,13.28-.75,7.67,1,15.32-1.15,23.12-1.83,6.49-1.87,13.62-1.78,20.45.09,6.52-1.48,12.76-2.19,19.12a60.07,60.07,0,0,0-.64,10.61c.55,7.11-1.88,13.66-2.14,20.57-.45,12.19-2.45,24.3-2.67,36.56-.27,15.47-1,30.94-1.32,46.41-.13,6.75-1.51,13.33-2.14,20-.33,3.45-3.44,5-5.2,7.45-7.65,10.66-18.55,10.7-29.7,8-5.07-1.22-6.38-6.9-8.48-11-3.19-6.15-5.91-12.56-5.65-19.93.18-5.48-3.78-8.94-9.06-9.55-3.74-.43-5.9-1.75-6.09-6.5-.44-10.69,1.56-21,3.23-31.41.74-4.6,5.15-4.22,8-3.5,3.24.82,4.49-.61,6-2.58A22.48,22.48,0,0,0,758,287.81a4.78,4.78,0,0,1,.35-2.38c6.28-8.74,6.11-19.24,8.58-29.06a95.75,95.75,0,0,1,4.37-12.61c3.34-8.11,3-16.83,5.39-25.06,3.86-13,4.51-26.71,7.47-39.95.62-2.8-.71-6-.24-8.89,1.84-11.3,0-22.62.48-33.82.68-15.53-2.24-30.57-4.11-45.64-1.19-9.53-3.14-19.59-8.13-28.71-2.84-5.21-4-11.32-8-16.2C758.45,38.63,752,33,743.27,30.71a40.75,40.75,0,0,0-15.2-.75c-8.79,1-17.48,3.18-26.28,3.75-6.19.4-11.61,2.89-17.45,4.12-2.46.51-3,3-4.34,4.57a160.52,160.52,0,0,1-13.27,15.11c-7.51,7.16-12.18,16-17.77,24.2-6.64,9.78-10.83,20.69-10.47,32.84a11.51,11.51,0,0,0,1.22,4.78c4.87,9.36,7.54,19.69,12.75,28.91,2.78,4.91,5.74,9.81,7.71,15.06,1.69,4.52,4.93,8.27,5.88,13.12.45,2.35,3.5,3.26,4.31,5.3,4.11,10.39,13.68,16.82,18.9,26.56,2.47,4.61,7.12,8.79,12,11.82,10,6.14,18.81,13.64,25.72,23.27,2.49,3.47,6.66,5.21,9.7,8.25,1.79,1.79,2.31,2.48.74,4.7-4.6,6.49-12.35,9.38-20.54,7.54-6.68-1.49-12-5.91-18.37-8.07a36.5,36.5,0,0,1-17.07-12.11,19.17,19.17,0,0,0-7.42-5.62c-4.05-1.73-4.94-6.25-7.28-9.42-5.36-7.27-12.09-13.23-17.74-20.18-6.46-8-14.59-14.18-21.69-21.42-5.73-5.86-10.87-12.73-11.54-21.64-.2-2.63-2.86-3.9-3.72-6.35-2.17-6.19-3.18-12.64-4.88-18.9-1.55-5.68-4.74-10.92-7.38-16.28-2-4-4.74-7.58-6.1-11.7C592.82,109.38,591.26,107.35,589.42,104.37ZM775.92,317c-4.29,4.19-6.26,9-8.24,14.06-1.44,3.67-2.57,7.81-6.52,10.3-1.69,1.07-2.65,3.83.49,5.35s5.51,2.56,5.49,7.06c0,3.95,4.51,2.16,6.91,2.45s1.47-2.69,1.11-3.45c-1.3-2.73.48-4.94.66-7.37A229.5,229.5,0,0,0,775.92,317ZM632.27,63.13c-.08-1.41-.32-2.47-2.07-1.75s-3.91,1-5.34,2.12c-5.09,4.08-10.12,8.26-14.83,12.77-2,1.91-1.71,4.2,1.66,4.93a5.37,5.37,0,0,1,2.7,1c2.5,2.68,4.56,1.45,6.13-.78,2.59-3.67,5-7.5,7.22-11.38C629.14,67.65,631.7,66,632.27,63.13Z"/><path class="cls-3" d="M524.5,558.7c-7.4,1.28-9.89-5.06-13.28-9.67-6.06-8.25-9.81-17.87-15-26.67-5.85-9.94-12.53-19.64-15.8-30.94-.73-2.51-3.14-3.36-4.47-5.48-5.38-8.61-7.75-18.61-12.94-27.17-7.14-11.8-12.12-24.64-18.62-36.7-5.25-9.75-8.93-20.27-14.42-29.77-4.33-7.49-9.2-14.82-12.84-22.59-5.94-12.7-14.08-24-21.18-35.95-5.94-10-12.42-19.84-21.72-27.4a9.49,9.49,0,0,1-3.28-9.89c1.05-3.82,6.07-6.43,10.27-6,1.32.12,2.72.54,3.95.25,6.93-1.69,10.52,3.15,14.36,7.31,5.78,6.26,9.68,13.94,14.8,20.58,5.35,6.95,9.62,14.49,14.29,21.77,4.95,7.73,8.33,16.45,12.62,24.63,2.88,5.5,6.65,10.58,9.11,16.25,3.07,7.06,7.55,13.31,10.68,20.33,3,6.66,6.75,12.95,10.07,19.45,3.6,7.05,7.62,14,10.36,21.32,1.16,3.1,3.13,5.64,4.49,8.47,4.87,10.14,9.83,20.23,14.54,30.46,2.7,5.87,7.82,10.52,9.83,16.73,2.19,6.76,6.57,12.07,10.3,17.83.75,1.16.91,3.3,3,2.57,1.54-.54,3.19-1.77,3.46-3.35.9-5.14,1.52-9.52-1.67-15.18-5.11-9-12.53-16.95-15.13-27.44-.65-2.62-3.52-4-4.83-6.59-6-11.93-13.2-23.3-18.49-35.51-1.87-4.33-3.91-8.76-6.69-12-5.59-6.53-7.59-14.61-11.61-21.75s-8.77-14.3-12-21.94c-7.17-16.83-16.92-32.41-23.56-49.5-2.54-6.54-6.74-12.42-9.83-18.77-4.73-9.7-9.33-19.48-13.58-29.41-1.12-2.59-3.58-4.24-4.12-7.09-.14-.75-1.21-1.42-1.17-2.09.38-6.39-3.89-10.71-6.68-15.72-1.88-3.39-1.34-6.17,2-9,5.37-4.48,10.56-5,17-2.48,5.63,2.19,6.69,7,8.36,11.5,3.19,8.61,4.81,18.07,9.37,25.83,3.6,6.14,5.94,12.66,9.12,18.87,5.84,11.39,11.74,22.77,17,34.43,3.95,8.74,8,17.51,12.45,25.91,2.8,5.3,6,10.72,8.74,16.1,4.67,9.24,9.92,18.18,15.17,27,5.52,9.28,8.92,19.53,15,28.6,3.81,5.69,6.83,12.29,10,18.61,4.26,8.64,9.28,16.9,13.88,25.38,1.16,2.14,2.31,2.07,3.7.4.63-.76,1.6-1.63,1.61-2.47.16-7.39,3.4-14.08,4.65-21.18,2.11-11.91,4.2-23.93,8.11-35.29,4.48-13.06,7.09-26.42,10-39.81,2.61-12.13,5.37-24.27,8.08-36.34,2.17-9.74,5.6-19.09,7.8-28.78,1-4.25.15-9.67,5.49-12.84,6.35-3.78,15.38-4.36,21.82-.74,3,1.71,3.34,3.8,2.68,6.48-.9,3.58-1.22,6.85.35,10.53a9,9,0,0,1-1.76,9.9c-2.72,3.07-6,5.61-8.27,9.13-2.79,4.33-3.6,8.74-1.69,13.51.6,1.51.32,2-1.17,2.36a2.93,2.93,0,0,0-2.31,2.94c.25,5.38-2.56,10.19-2.79,15.4a62.59,62.59,0,0,1-3.49,16.82,20.66,20.66,0,0,0-.72,5.39c-.32,6.46.81,7.37,6.41,4.83a30.34,30.34,0,0,1,18.35-2.05c2.64.47,2.91,1.78,3.28,4,1.31,7.88-2.9,11.77-9.09,15.62-4.46,2.78-7.8,7.57-11.19,11.82s-6.11,9-9.27,13.39c-2.51,3.5-2.59,7.84-5,11.61-5.13,8-11.77,15.61-11.39,26.34.11,3-.94,7.09-2.54,9.14-3.84,4.93-2.88,10.86-4.86,16.1-1.68,4.43-4.53,8.66-5.2,13.14-1.27,8.41-6.71,15.37-7.51,23.72A25.24,25.24,0,0,1,524.5,558.7Z"/><path class="cls-3" d="M303,385.9c-4.38-8.64-9.27-16.65-12.57-25.26-3.08-8-7.66-15.38-9.89-23.75-1.09-4.1,0-9.79,3.05-12.06.39-.3.82-1,1.11-.93,6.77,1.53,14.19-2.17,20.55,2.61,1,.74,2.07,1.45,1.56,2.77-1.1,2.86.36,5.12,1.71,7.25,6.26,9.93,8.08,21.78,13.63,31.88s8.82,21,13.87,31.13q5.16,10.32,10.55,20.56c2.32,4.4,2.54,9.45,5.13,13.67.58,1,.52,2.36,1.2,3.21,4.34,5.49,5.18,7.54,7.29,13.56,1.35,3.85,3.66,7.35,5.43,11.07a54.73,54.73,0,0,1,4.43,11.74c.6,2.72,3.53,3.31,4.9,5.41.75,1.15,2.2,1.76,2.4,3.47,1,8.32,6.16,14.91,9.22,22.36,3.2,7.77,8,15,9.12,23.55a2.5,2.5,0,0,0,.58,1.35c6.93,7.33,6.45,18.23,11.86,25.86,7.74,10.91,9.49,24.29,16.6,35.26a6.3,6.3,0,0,1,1,3.78c0,.82-.27,2.24,0,2.38,4.83,2.23,4.08,8.17,7.63,11.24a5.81,5.81,0,0,1,2.22,3.81c.32,4.32,3.54,6,7,6.52,3,.48,5.18,2.81,8.67,2.49,1.4-.13,4.45,2.64,5.45,5.84,1.57,5,2.44,10.54,6.77,14.37,2,1.72,1.24,4.36,1.87,6.55,1,3.46-1.91,3.55-3.73,4.75-10.5,6.9-21.82,6-31.86-2.51-7.28-6.18-15.66-11.09-21.53-18.88-3.05-4-6.45-7.87-9.11-12.15-5.87-9.42-11.19-19.31-17.54-28.29-8.47-12-12.68-26.12-21.26-38-4-5.51-7.91-12-10-18.27-4.54-13.25-11.81-25-17.6-37.53-6.94-15-15.52-29.21-22.25-44.39-2-4.54-5.3-9-7.12-13.57a157.43,157.43,0,0,0-8.94-19.45c-3.76-6.6-6-14.1-11.84-19.68-1.93-1.85-3.74-5.75-2.06-9.21,1.41-2.89,9.28-6.21,12.13-5.64,1.12.23,1.65,1.44,3.1,1.25A57.74,57.74,0,0,1,303,385.9Z"/><path class="cls-3" d="M218.45,834.37c.43.47.91,1,.23,1.55s-1,0-1.23-.64Z"/><path class="cls-3" d="M1120.52,248.21l-.49-.33c.08,0,.21,0,.25.06a1.25,1.25,0,0,1,.16.35Z"/><path class="cls-3" d="M1892.27,322.71h0v0C1892.63,322.13,1892.47,322.06,1892.27,322.71Z"/><path class="cls-3" d="M2433.76,413c-4.13,4-10.63,4.33-15.68.85-4.11-2.83-7.71.7-11.53,1.26-2.43.35-3.39,2.24-3.39,4.91,0,3.73-3,5.1-6.8,4.7s-7.3-3-11.2-.49c-.66.42-2.15.09-3-.34-4.19-2-9-1.41-12.57-.14-9.65,3.43-20,4.51-29.41,8.63-4.56,2-10.1,1.95-14.58,4.05-14.25,6.69-30.21,8.22-44.62,14.82a96.23,96.23,0,0,1-29.69,8.63,3.24,3.24,0,0,0-1.68,1.07c-4.84,4.94-11.68,6.31-17.72,8.91-6.79,2.94-14.37,4.15-21.22,7-11.16,4.58-22.8,7.92-33.87,12.75-9.41,4.1-19.6,6.59-28.79,11.05-14.3,6.94-29.33,12.06-43.91,18.26-6.47,2.75-13.24,4.68-19.62,7.63-7.77,3.59-15.73,6.83-23.69,10-10,4-20.32,7.57-30.23,11.87-9.72,4.21-19.92,7.2-29.79,10.95-15.48,5.89-31.45,11.09-47.88,14.39-12.48,2.51-25,5.25-37.82,2.13-5.15-1.26-5.58-3-2.77-7.55,3.69-6,9.39-10.73,12.56-16.67A81.66,81.66,0,0,1,1940,532c6.37-6.29,11.22-13.86,18.11-19.68,1.89-1.59.77-5,3.66-5.88,3.37-1,4.77-3.67,6.33-6.36a22.16,22.16,0,0,1,4-5.27c5.22-4.78,9.3-10.57,13.39-16.08a172.44,172.44,0,0,1,15.58-18.24c8.27-8.38,15.65-17.35,23-26.41,5.32-6.57,10.52-13.25,15.37-20.15,5.68-8.05,12.94-14.85,18.36-23.15,8.74-13.37,17.88-26.45,25.76-40.38,7.15-12.65,11.43-25.67,11.4-40,0-1.45.74-3.52-.76-4.27-2.67-1.33-3.16-3.56-3.34-5.89a2.48,2.48,0,0,0-2.11-2.52c-4.4-.79-6-4.75-9-7.09a33.5,33.5,0,0,0-13.46-6.28,78.87,78.87,0,0,0-31.29-.66c-9.76,1.8-19.78,1.92-29.39,4.82-7.55,2.28-15.59,3.09-23,5.66-5.36,1.85-11.2,2.44-16.08,4.57-7.7,3.35-15.84,4.84-23.65,7.53-14.71,5.07-30,8.62-44.27,14.84-2,.88-3.92,2.11-6.3,1.64-1.32,2.24-4,1.85-6,2.64-7.3,2.83-14.65,5.46-21.9,8.45-20,8.21-40.49,15.08-60,24.39-8,3.85-15.69,8.39-24.24,11.47-4.58,1.66-17.94,9.91-23,9.79a.83.83,0,0,1,.2.31,9.66,9.66,0,0,0-1.38.55c-9.92,5.35-20.15,10.08-30.29,15l-51.81,27V422c-.84.51-1.66,1-2.48,1.61h0c-3.31,2.22-6.57,4.59-10.22,6-5.43,2.09-10,5.34-14.88,8.14a111.33,111.33,0,0,1-18.61,8.75c-5.08,1.77-12.18.74-13,8.61,0,.37-.64.86-1.08,1-7.89,2.33-14.7,6.63-21.36,11.11-4.58,3.09-9.92,4.73-14.5,7.88-6.49,4.45-13,9-20.11,12.51-6,3-10.65,8.37-17.82,9.29-.37,0-.7.64-1,1-3.39,4.49-8.39,7.14-12.87,10.34-7.38,5.27-16.34,8.07-23.53,13.77-2.52,2-4.86,4.46-8.25,5.31-1.35.34-2.85,1.16-3.93-.14-1.3-1.58.71-2.4,1.35-3.4,2-3.12,6.23-3.71,8.47-6.32,11.09-12.92,23.48-24.61,36.17-36,4.59-4.13,7.18-9.71,11.87-13.69A308.46,308.46,0,0,0,1572,444.93c7.73-8.13,13.51-17.85,21.82-25.54,3.74-3.46,8.73-6.34,11.24-10.25,7.28-11.36,16.91-20.87,25-31.61,9.29-12.4,20.7-23.24,28.75-36.68,8.87-14.82,19.72-28.63,24.15-45.61,1.47-5.65,4.27-10.87,4.28-17.05,0-11.78-8.76-18.36-15.46-26.17-1-1.21-3.27-1.72-5.2-2.22-9.37-2.41-18.85-1.18-28.27-1-6.12.12-12.62.7-17.82,3.69-3.59,2.06-6.91,3.58-11,4-1.1.1-2.21.3-3.06-.38a1.9,1.9,0,0,1-1.45,2.14c-3,.46-4.83,2.75-7.31,3.64-10.19,3.69-20.5,6.8-30,12.39-6,3.56-13,5.81-19.5,8.63a430.28,430.28,0,0,0-40.92,20.34c-12.28,7-25.19,12.88-37.14,20.37-6.39,4-13.69,6.36-19.49,11.56-4.07,3.64-9.63,5.76-14.66,8.31-2,1-5.1.16-6.23,3,1.36.39-13.58,7.33-14.11,8.56-.74,1.73-2.42,2.4-4,3.19a218.06,218.06,0,0,0-27.56,16.68c-13.7,9.84-29.16,16.93-42.89,26.62-2.06,1.46-4.22,2.92-6.38,4.38l-.06-.07-5.81,4.09h0l-11.64,8.18v-.06c-.88.67-1.78,1.31-2.68,1.95l-.75.52c-7.35,5.07-15.34,9.26-22.31,15s-15.07,10.63-23,15.4c-10.23,6.18-20,13-30,19.53-12.66,8.32-24.68,17.62-37.25,26.15-3.41,2.32-7.45,3.41-10.55,6.49-7.75,7.72-17.1,13.56-26.37,19.44-7.75,4.91-15.45,9.93-23.08,15-11.55,7.64-22.39,16.23-35,22.38a217.23,217.23,0,0,0-24,13.39c-17,11.16-35.33,17.88-55.88,19-3,.16-3.16-1-2.1-2.82a50.14,50.14,0,0,1,5.54-8c11.51-13,22.91-26.17,34.84-38.85,6.74-7.16,11.16-16.15,19.16-22.26,1.85-1.42,4.23-2.57,5.37-4.41,4.3-7,9.89-13,15.74-18.56,8.1-7.73,14.66-16.72,22.76-24.44,7.53-7.18,14.24-15.17,21.31-22.8,1.45-1.58,3.74-2.32,5-4.1h0L1166.64,432l-.19,0a8.15,8.15,0,0,1,1.15-.83c4-2.34,6.17-6.28,9.36-9.28q13.65-12.89,27.34-25.77h0v0l1.15-1.08h-.16l18.36-20.07c6-5.72,12.06-11.42,17.56-17.42,8.82-9.62,20.41-17,26.44-29a4.07,4.07,0,0,1,1-1.18c6.5-5.59,13.32-10.76,18.91-17.38,6.78-8,14.7-15.12,21.52-23.1,5.79-6.79,12-13.22,18-19.8,10.52-11.51,23.07-21.15,32-34.21,4.39-6.47,11-11.45,16.14-17.54,7.5-9,14.37-18.41,22-27.28,9-10.35,17.18-21.33,25.21-32.38,2.65-3.64,7.85-6,8.49-9.88,1.17-7,7.25-10.79,9.74-17,2.79-7,7.51-13.29,9.34-20.77.64-2.64.41-5.51,1.28-8,4-11.72-6-26-18.48-27.13a134.19,134.19,0,0,0-25.11.48c-8,.8-15.18,4.06-22.25,6.71-6.51,2.44-12.07,7.22-19.3,9.38a68.54,68.54,0,0,0-21.41,10.53c-6.37,4.81-15.11,4.44-20.65,10.94-3.61,4.22-10.78,4.45-15,8.5-4,3.88-10.58,3.24-13.89,8.29a14.53,14.53,0,0,1-5.79,5.52c-6.39,3.17-11.58,8.73-19.59,8.52-.49,0-1.25.79-1.47,1.37-2.16,5.62-8.23,7.52-12,11.6-1.36,1.46-.44,4.59-2.66,4.29-5.11-.69-7.87,2.58-10.79,5.32a133,133,0,0,1-19.93,15.18c-5.23,3.3-9.18,8-15,10.91-5,2.56-9.71,6.51-14,10.67-5.37,5.17-9.79,12-18.25,13.57a4.56,4.56,0,0,0-3,2.59c-1.57,5.46-6.52,7.39-10.71,10.14.16,2-1.51,2.42-3,3-5,2-7.66,7.64-13.57,8.29-4,10.16-13.65,14.93-21.76,21-3.79,2.85-8.3,4.68-10.82,9-2.24,3.87-7.07,5.67-9.35,9.2-4.71,7.31-13.91,10.46-17.5,18.59,0,.11-.35.08-.47.19-8.21,7.35-17.15,13.88-24.2,22.53a27.44,27.44,0,0,1-2.46,2.57l-.07-.05-11.3,9.39h0l-12.29,10.21a9,9,0,0,0-2.84,1.42c-1.41,1.38-2.73,2.83-4,4.3l0,0h0c-2.3,2.57-4.54,5.19-7,7.65-9,9-18.14,17.76-25.66,28-1.71,2.33-4,4.77-7.55,5.75-4.28,1.17-4.91,6.21-8,9-3.24,2.92-4.57,8-8.88,9.56-5.93,2.12-9.39,6.69-12.76,11-5.5,7-12.44,12.55-18.65,18.71-8.93,8.86-17.29,18.21-26.11,27.14-8.49,8.59-15.76,18.35-24.69,26.44-10.42,9.43-18.86,20.36-28,30.78-2.31,2.64-4.44,5.16-8.11,6-1.31.3-3.15.75-3,2.38.4,4.54-2.77,6.77-5.69,9.41-5.46,4.93-9.2,11.41-14.37,16.46-7.1,7-13.07,14.8-20,21.88-6.27,6.39-11.25,14.15-17.43,20.51-9.13,9.41-17.55,19.43-26.65,28.85-11,11.45-20.91,24.07-30.33,36.83-3,4-6.34,7.59-9.51,11.34-1.68,2-1.41,4.64-3.89,6.34-7.79,5.34-13.49,13-18.51,20.44-7.58,11.14-18.08,19.82-25.16,31.47-5.44,9-13.86,16.39-20.31,25.08-4.17,5.63-9.11,10.82-13.61,16.27-6,7.28-11.41,15.06-17.74,22.13-4.47,5-7.78,11-11.94,16.16-9.59,11.89-19.43,23.6-28.79,35.68-4.57,5.89-8.71,12.09-13.15,18s-9.37,11.74-13.35,18.2c-4.21,6.85-9.46,13.22-14.22,19.82-3.59,5-5.84,11.74-13,13.8-1,.29-1.65.74-1,1.73,1.32,1.9-.44,2.7-1.29,3.89q-7.1,9.85-14.11,19.76-12.67,17.8-25.36,35.62c-1.29,1.81-3.13,3.33-4.07,5.28a107.09,107.09,0,0,1-18.12,26.88c-6.12,6.47-10.24,13.86-14,21.34-4,7.75-9.2,14.57-13.62,22-3.14,5.25-5.46,11-7.95,16.53-2.34,5.23-4.3,10.7-7.44,15.47-3.35,5.09-3.4,10.14-2.22,15.6.29,1.34,1.19,1.72,2.23,2.45,4.5,3.15,8.64.26,13-.16,4-.39,5.59-2.07,6.86-5.67,1.43-4,1.86-8.33,4.51-12.14,3.35-4.84,6.79-9.54,8.74-15.49,3.65-11.17,11.25-20.65,17.05-30.92,2.26-4,5.87-6.9,7.73-11.48s3.17-11.46,12.78-10.86c-5.41-3.26-3-5.89-1.28-8.09,7.41-9.51,12.78-20.38,21-29.36a8.09,8.09,0,0,0,2.13-3.5c1.37-6.77,7.47-10.61,10.67-16.35,5.67-10.17,16-17.46,20.61-28.52.37-.88,1.43-1.47,2.08-2.27,2.49-3,5.13-6,7.39-9.22,6.08-8.6,11.46-17.62,17.6-26.21,5.47-7.65,13-13.62,17.74-21.85.93-1.61,1.15-3.42,2.38-5,8.81-11,17.39-22.13,26.15-33.15,6.56-8.26,11.63-17.61,19-25.21a117.65,117.65,0,0,0,12.63-16c7.58-11.13,17.36-20.49,25.06-31.48,6.42-9.17,14.12-17.49,21.1-26.29,3.5-4.4,8.57-7.8,11.39-12.23,6.95-11,16-20.19,23.84-30.44,10.86-14.31,22.35-28.2,34.08-41.89,2.65-3.09,6.44-4.85,8.45-8.5,4.71-8.53,12.9-14.38,18.83-22,5.37-7,12.59-12.55,18-19.49,7.36-9.49,15.82-18,23.25-27.45,4.75-6,10.35-11.36,15.45-17.11,9.47-10.67,18.8-21.45,28.3-32.1,4.36-4.9,9-9.56,13.46-14.38,6.5-7,12.34-14.77,19.58-21,8.71-7.46,14.88-17.11,23.86-24.21,4.23-3.36,7.29-7.73,10.8-11.72,7.59-8.62,17.07-15.48,24.2-24.61,2.86-3.67,5-8.18,9.89-10.27,3.46-1.49,5.54-4.58,7.79-7.37s3.66-6.27,6.44-8c8.42-5.09,13.15-13.48,20.12-19.83,5.46-5,10-10.9,15.37-16l15.84-14.78c.29.65.71.6,1.22,0a105.3,105.3,0,0,1,8-8.61l10.27-9.58,1.79-1.66.56-.53h0c1.66-1.56,3.3-3.14,4.89-4.77,3.3-3.37,6.58-6.91,9.89-10.28,2.21-2.24,6.17-2,7-4.83,1.57-5.28,6.19-8.49,9.71-11.53,9.9-8.55,19.66-17.19,29.2-26.11,8-7.53,16.83-14.32,25.3-21.42,6-5.08,14-8.73,18.55-14.52,8.38-10.75,20.24-17.16,30.21-25.74,11.2-9.64,23.48-18.38,35.85-26.82,6.64-4.53,12.62-10,19.35-14.4,6.46-4.23,13.2-8,19.09-13,7.19-6.12,15.75-10.24,23.88-15,1.25-.73,3-2.07,4.81-.53a1.66,1.66,0,0,1-.32-.33c-1.17-2.17-.16-3.47,1.8-4.55.89-.49,1.49-1.77,2.37-1.93,3.45-.64,5.7-3.23,8.64-4.61,7.73-3.61,14.86-8.24,22.32-12.29,10.48-5.69,20.78-11.75,31.78-16.36,8.28-3.47,15.8-9.35,25.58-8.9.22,0,.41-.55.69-.66,9.19-3.71,18.41-7.19,28.71-5.91,3.37.42,5.15,2,4.92,5.37-.42,6-2.55,11.48-5.29,16.79-3,5.88-5.67,12-9.24,17.56-4.47,7-6.51,15.93-15.76,19.32a2.59,2.59,0,0,0-1.38,2c.71,7.61-5.13,13.06-9.24,17.22-6.19,6.28-10.19,13.91-16.4,20.13-10.31,10.34-18.5,22.53-28.4,33.4-11.1,12.2-22.24,24.4-33.24,36.69-7.62,8.51-16.2,16.21-24.19,24.41-3.3,3.4-7,6.6-9.92,10.14-5.27,6.39-12.13,11.18-17.26,17.68-3.65,4.61-8.72,8.15-12.82,12.46-5.28,5.56-10.29,11.31-16.61,15.89a26.76,26.76,0,0,0-7.72,8c-2.19,3.69-7,6-11,11l-2,1.87h0l-9.25,8.7-1,1-1.4.76c-1,.54-1.49,1.9-2.43,2.58-4.29,3.12-7.61,7.18-11.21,11.2-1,.88-3.4,3.16-6.88,6.84h0l-.91,1a3.65,3.65,0,0,1,1.19-1.67l-.28.18c-5.48,4-4.09,5.83-7.4,8.63A165.89,165.89,0,0,0,1161,410.57c-6.55,7-13.83,13.46-20.85,20.09a19.07,19.07,0,0,0-1.14,1.66l-11.23,12.24c-1,.84-1.79,1.56-2.49,2.24-7.81,7.6-15.09,15.63-22.57,23.51-13.21,13.94-26.15,28.13-39.7,41.76-5.8,5.84-9.75,13.2-16.63,18.1-1.64,1.17-3.64,1.92-4.68,4-4.64,9.2-12.91,15.69-19.58,23.3-9.06,10.31-18.38,20.32-25.19,32.22-1.28,2.24,1.07,10.05,3.31,11.38,7.52,4.5,15,8.58,24.33,9.25,4.32.31,8.5,1.05,12.88.34,13.09-2.12,25.92-4.39,38-10.66,7.42-3.87,15.26-7,22.46-11.42,8-4.87,16.06-9.75,24.43-14,9.58-4.87,17.94-11.51,27.1-17,6.61-4,13.26-8.29,19.58-12.92,8.93-6.53,18.75-11.91,27.14-19.19,9.61-8.32,20.89-14.47,30.92-22.26,8.28-6.42,17.64-11.62,25.51-18.45,6.34-5.5,13.9-9,20.44-14.11,7.64-5.93,15.85-11.2,24-16.5,5.69-3.71,10.11-9,17-11.38a17.4,17.4,0,0,0,5.66-2.93h0l7.23-5.38h0l20.1-15c12.75-8.14,25.6-16.14,38.46-24.11s26-15.83,38.83-23.88c13.37-8.36,26.52-17.1,40.83-23.92,10-4.75,18-12.49,28.42-16.53,8-3.09,14.86-8.38,22.43-12.16,8.14-4.06,15.35-9.75,23.91-12.91,4.52-1.67,8-5.46,12-6.74,10.91-3.45,20.84-8.82,31.34-13,16-6.36,32.09-12.67,48.81-17.1,6.88-1.82,13.84-3.83,21.06-4,9.65-.23,14.85,4.15,13.82,12.14a81.73,81.73,0,0,1-10,29.67c-5.36,9.55-10.55,19.14-17,28.21-6.15,8.71-13.24,17-17.78,26.73a10.32,10.32,0,0,1-2.77,3.64c-11.13,8.85-17.87,21.12-26.44,31.94-2.94,3.71-6.46,7.05-9.27,11-3.34,4.63-8.81,8.25-12.56,13.19-1.81,2.38-14.18,15.1-19.1,20.25-3.71,3.88-10.16,9-11.89,11.17-4.45,5.64-9.94,10.35-15.19,15.13-8.08,7.33-15.26,15.47-23.46,22.72-9,7.91-17.51,16.37-26.42,24.39-11.24,10.13-22.91,19.81-34,30.12-10.4,9.71-21.16,19-32,28.27-3.24,2.78-6.07,6.76-11.19,6.87-.38,0-.76-.74-.59.36.64,4.15-3.17,6-5.53,7.8-8.6,6.75-17.64,13-26,20.06-7.29,6.21-15.21,11.73-22.82,17.59-5.62,4.32-10.89,9-18,11.28-4.93,1.55-7.17,11.06-3.74,14.5,4.18,4.18,12.53,6.48,17.48,3.72,11.57-6.46,24.66-10.48,34.42-19.92s22.16-16.1,33.38-23.79c13.46-9.23,25.85-19.9,40.12-28.09,8.21-4.71,14.65-11.87,22.8-16.81,1.27-.77,2.83-1.8,2.8-3.5s1.13-1.73,2-1.51c3.29.82,5-1.72,7.47-2.8s3.77-3.21,6.28-4.36c7.53-3.46,15.46-6.85,21.71-12a187.68,187.68,0,0,1,23.94-16.58c3.57-2.11,7.73-3.85,10.6-6.37,6.42-5.65,14.35-8.77,21.25-13.55,10.41-7.23,22-12.85,32.63-19.81,15.57-10.2,32.48-18.14,48.33-27.82,9.08-5.55,19.9-8.07,28-15.2.41-.36.81-.74,1.19-1.13h0l15.18-8,0,0a9.49,9.49,0,0,0,2.58-.82c3.46-1.51,14.69-7.06,17.34-8.39,7.45-3.74,14.72-7.86,22.32-11.26,6.13-2.75,11.33-6.23,17.18-8.31l9.13-1.79,9.13-4a1.59,1.59,0,0,0,.62-.23,5.39,5.39,0,0,0,1.44-1.09c3-2.91,12-9.79,15.75-10.53a22.89,22.89,0,0,0,7.17-2.8c6.67-3.81,14.18-6,20.81-10.08,3.78-2.32,8.89-2.69,12.6-4.79,10-5.7,21.19-8.87,31.79-12.95,10.76-4.13,20.84-9.61,31.77-13.41,11.19-3.9,22-8.59,33.57-11.84,12-3.36,23.51-8.09,35.43-11.72,14-4.25,27.74-9.16,42.13-11.83,10.9-2,21.52-5.19,32.61-6.49,10.64-1.24,21.13-2.66,31.74.15,5.63,1.5,9.42,5.3,9.27,9.54-.48,14.11-7.82,25.56-14.75,37.3-2.22,3.76-7,5.44-8,9.52a26.83,26.83,0,0,1-5.21,10.08c-4.45,5.87-7.54,12.52-12.49,18.19-4.27,4.9-7.42,10.84-11.45,16.1-3.08,4-7,7.66-9.56,11.65-5.31,8.29-12.06,15.38-18,23.13-4.59,6-10.08,11.39-15.28,17s-8.66,12.28-13.82,17.68c-8.69,9.11-16.23,19.18-25.06,28.1-11.88,12-20.89,26.31-33.4,37.74-.13.12-.35.21-.39.34-2.19,8-10.08,12.28-13.57,19.84-2.57,5.59-3.67,10.87-4.69,16.62a7.07,7.07,0,0,0,2.16,6.82c7.61,6.89,17.11,10.78,27.06,12.72,7.56,1.47,15.43.7,23.3,0,14.93-1.4,29.34-4.78,43.52-8.85s28.21-9.67,42.22-14.78c9.8-3.57,19.36-7.74,29.13-11.43,5.12-1.94,10.85-2.43,15.46-5.43,7.27-4.75,15.42-7.73,23.48-10.64,7.84-2.84,15.59-6.05,23.19-9.23,7.76-3.25,16.24-5,23.43-9.62,5.53-3.56,12.89-3.09,18.19-7.41a17.43,17.43,0,0,1,5.08-2.55c9.39-3.48,18.81-6.95,28-11,14.76-6.48,30.17-11.38,44.92-17.91,8.67-3.83,18.17-5.93,26.82-9.79,6.45-2.89,13.28-4.76,19.61-7.84,12.52-6.08,26.9-6.5,39.55-12.77,9.21-4.57,19.6-7.16,29.71-9.72,14.35-3.63,27.67-10.1,42.14-13.35,10.85-2.44,21.14-6.61,31.48-10.58C2434,419.56,2434.51,419.29,2433.76,413ZM2414,416.52c-.28-1.16,1.11-.39,1.75-.51.37-.07.83.29,1.36.5C2415.84,418,2414.13,417.16,2414,416.52Z"/><path class="cls-3" d="M1606.42,256.08a3.76,3.76,0,0,0-1.11-2.16A3.71,3.71,0,0,0,1606.42,256.08Z"/><path class="cls-3" d="M1161.87,227.4l.08-.05v0Z"/><path class="cls-3" d="M1182.77,387.7c.69-.47.45-.39,0,0Z"/></g></g></svg>